<?xml version="1.0" standalone="no"?>
<!DOCTYPE svg PUBLIC "-//W3C//DTD SVG 20010904//EN"
 "http://www.w3.org/TR/2001/REC-SVG-20010904/DTD/svg10.dtd">
<svg version="1.0" xmlns="http://www.w3.org/2000/svg"
 width="500.000000pt" height="500.000000pt" viewBox="0 0 500.000000 500.000000"
 preserveAspectRatio="xMidYMid meet">

<g transform="translate(0.000000,500.000000) scale(0.100000,-0.100000)"
fill="#000000" stroke="none">
<path d="M1068 4989 c-2 -6 -35 -14 -73 -19 -226 -24 -476 -212 -656 -490
-255 -395 -369 -936 -321 -1525 43 -527 275 -1048 575 -1292 71 -57 203 -143
222 -143 5 0 23 -7 39 -15 108 -57 350 -73 507 -34 111 27 267 103 368 180
112 84 277 255 407 424 76 99 244 349 244 364 0 10 -36 76 -81 147 -198 315
-211 334 -261 360 -59 31 -92 11 -164 -99 -133 -202 -316 -394 -445 -466 -101
-56 -164 -73 -274 -73 -84 0 -110 4 -164 26 -211 85 -357 299 -428 627 -25
116 -25 400 -1 514 22 98 69 248 93 295 72 140 192 267 304 323 64 31 69 32
196 31 109 0 139 -4 184 -22 196 -78 383 -272 645 -670 98 -150 122 -188 242
-382 454 -740 655 -1029 854 -1230 260 -261 486 -370 768 -370 143 0 224 19
356 84 308 150 560 498 686 950 79 283 106 517 97 831 -17 581 -200 1077 -512
1391 -150 151 -323 248 -470 265 -38 4 -71 12 -73 18 -5 14 -132 15 -132 1 0
-5 -17 -12 -37 -15 -189 -30 -492 -210 -798 -474 -124 -107 -372 -376 -474
-514 -23 -32 -46 -57 -51 -55 -5 2 -60 80 -122 173 -62 94 -149 217 -193 275
-103 136 -329 361 -427 428 -141 96 -287 157 -392 165 -33 2 -62 9 -64 15 -5
16 -169 16 -174 1z m2949 -888 c23 -12 46 -21 51 -21 4 0 38 -25 75 -55 157
-130 261 -342 302 -617 44 -294 -21 -627 -166 -842 -118 -175 -259 -259 -434
-259 -259 0 -480 177 -783 625 -110 165 -192 293 -192 303 0 11 635 656 716
727 68 60 162 131 199 152 42 23 174 16 232 -13z"/>
<path d="M400 820 l0 -350 124 0 c128 0 138 3 128 42 -3 15 -20 18 -106 20
l-101 3 -3 318 c-2 309 -3 317 -22 317 -20 0 -20 -7 -20 -350z"/>
<path d="M770 820 l0 -350 135 0 135 0 0 30 0 30 -110 0 -111 0 3 137 3 138
88 0 c74 0 88 3 93 17 10 32 -6 38 -97 38 l-89 0 0 125 0 125 104 0 c60 0 108
4 111 10 3 6 3 19 0 30 -6 19 -15 20 -136 20 l-129 0 0 -350z"/>
<path d="M1275 1158 c-100 -55 -149 -219 -125 -422 14 -124 40 -195 85 -235
68 -59 146 -50 193 23 l27 41 3 -47 c3 -40 6 -48 23 -48 18 0 19 8 19 185 l0
186 -82 -3 c-82 -3 -83 -3 -86 -30 -3 -27 -2 -27 60 -30 l63 -3 3 -38 c5 -64
-17 -148 -48 -179 -22 -22 -38 -28 -70 -28 -57 0 -76 13 -104 69 -70 138 -47
421 39 489 58 46 144 18 175 -56 13 -30 34 -24 38 11 4 36 -23 84 -61 107 -36
22 -119 27 -152 8z"/>
<path d="M1745 1148 c-25 -108 -90 -407 -110 -506 -14 -68 -28 -134 -31 -148
-5 -20 -3 -24 18 -24 22 0 26 7 42 90 10 49 24 95 31 100 8 6 48 10 96 8 l83
-3 7 -30 c4 -16 13 -59 20 -94 13 -62 26 -78 53 -68 11 4 8 29 -15 129 -16 67
-47 213 -70 323 -51 247 -50 245 -89 245 -22 0 -31 -5 -35 -22z m45 -74 c0 -3
16 -78 35 -167 20 -88 34 -166 32 -172 -3 -6 -36 -10 -78 -9 -58 0 -74 3 -73
15 1 8 11 64 23 124 12 61 27 134 32 163 6 28 15 52 20 52 5 0 9 -3 9 -6z"/>
<path d="M2087 1163 c-4 -3 -7 -161 -7 -350 l0 -343 130 0 130 0 0 30 0 30
-105 0 -105 0 0 320 c0 304 -1 320 -18 320 -10 0 -22 -3 -25 -7z"/>
<path d="M2670 1160 c0 -6 15 -81 34 -168 19 -86 44 -204 55 -262 12 -58 29
-139 39 -180 17 -73 18 -75 49 -78 27 -3 33 1 37 20 90 403 136 626 136 658 0
20 -24 28 -34 12 -7 -12 -90 -390 -105 -477 -21 -120 -20 -118 -36 -105 -8 7
-15 22 -15 35 0 12 -18 102 -39 201 -22 98 -45 211 -52 249 -6 39 -16 78 -21
88 -9 18 -48 24 -48 7z"/>
<path d="M3150 820 l0 -351 133 3 132 3 0 25 c0 25 -1 25 -110 30 l-110 5 0
135 0 135 90 0 c92 0 111 8 99 39 -5 12 -26 16 -97 18 l-92 3 0 120 0 120 108
3 107 3 0 29 0 30 -130 0 -130 0 0 -350z"/>
<path d="M3540 820 l0 -350 25 0 24 0 3 158 3 157 54 -1 c77 -3 85 -15 118
-174 26 -122 31 -135 51 -138 14 -2 22 2 22 11 0 45 -45 230 -67 274 l-26 52
31 31 c39 39 56 98 49 172 -11 119 -60 158 -199 158 l-88 0 0 -350z m204 265
c41 -41 44 -160 5 -209 -18 -23 -27 -26 -90 -26 l-69 0 0 125 0 125 69 0 c49
0 74 -4 85 -15z"/>
<path d="M4024 1158 c-12 -5 -32 -29 -45 -51 -32 -56 -33 -152 -2 -219 20 -44
29 -51 96 -82 40 -18 83 -46 95 -61 42 -53 40 -132 -5 -185 -46 -55 -143 -33
-173 40 -15 37 -27 38 -40 4 -20 -52 48 -128 125 -139 103 -16 165 58 165 198
0 116 -25 153 -140 205 -77 35 -100 63 -100 127 0 77 30 114 92 115 30 0 47
-8 78 -36 l39 -36 7 27 c8 34 -12 72 -48 91 -31 16 -113 18 -144 2z"/>
<path d="M4375 1158 c-3 -7 -4 -164 -3 -348 l3 -335 133 -3 132 -3 0 31 0 30
-110 0 -111 0 3 138 3 137 87 0 c90 1 116 10 105 39 -5 13 -24 16 -102 16
l-96 0 3 123 3 122 105 5 c104 5 105 5 105 30 l0 25 -128 3 c-97 2 -129 0
-132 -10z"/>
<path d="M2427 834 c-4 -4 -7 -18 -7 -31 0 -23 2 -24 83 -21 80 3 82 4 82 28
0 24 -2 25 -75 28 -42 1 -79 0 -83 -4z"/>
</g>
</svg>
